<?xml version="1.0"?>
<svg xmlns="http://www.w3.org/2000/svg" height="512px" viewBox="0 0 512 512.00031" width="512px" class=""><g transform="matrix(-1 0 0 -1 512 512)"><path d="m308.433594 416.246094-213.253906-213.253906 176.621093-197.789063c5.960938-6.675781 16.308594-6.96875 22.636719-.640625l212.425781 212.421875c6.328125 6.332031 6.035157 16.675781-.640625 22.636719zm0 0" fill="#f3e8d6" data-original="#F3E8D6" class="" style="fill:#67A478" data-old_color="#67A377"/><path d="m191.214844 285.34375-174.300782 144.113281c-21.246093 17.566407-22.691406 49.628907-3.113281 69.035157s51.628907 17.675781 69.003907-3.722657l142.558593-175.578125zm-128.40625 192.09375c-7.769532 7.839844-20.421875 7.894531-28.261719.125s-7.898437-20.425781-.128906-28.265625c7.773437-7.839844 20.425781-7.894531 28.265625-.125s7.898437 20.425781.125 28.265625zm0 0" fill="#236575" data-original="#236575" class="" style="fill:#0F1111" data-old_color="#236575"/><path d="m355.929688 66.054688-35.808594 35.8125c-7.183594 7.179687-7.183594 18.824218 0 26.007812 7.183594 7.179688 18.828125 7.179688 26.007812 0l.054688-.054688c7.183594-7.183593 18.828125-7.183593 26.011718 0 6.925782 6.925782 7.148438 17.992188.71875 25.214844l-60.917968 60.914063c-7.183594 7.183593-7.183594 18.828125 0 26.007812 7.183594 7.183594 18.828125 7.183594 26.007812 0l37.902344-37.898437v.003906c7.179688-7.183594 18.824219-7.183594 26.007812 0 7.179688 7.179688 7.179688 18.824219 0 26.007812l-.328124.328126c-7.179688 7.179687-7.179688 18.824218 0 26.007812 7.183593 7.179688 18.828124 7.179688 26.007812 0l58.34375-58.34375zm0 0" fill="#fc7371" data-original="#FC7371" class="" style="fill:#E84140" data-old_color="#E83F3E"/><g fill="#dbcdbd"><path d="m506.863281 216.988281-33.890625-33.890625-210.085937 187.601563 45.546875 45.546875 197.789062-176.625c6.675782-5.960938 6.96875-16.304688.640625-22.632813zm0 0" data-original="#000000" class=""/><path d="m249.542969 341.570312c-.097657-.101562-.195313-.203124-.289063-.304687-2.851562-3.175781-2.589844-8.058594.582032-10.910156l55.789062-50.132813c3.175781-2.851562 8.0625-2.574218 10.910156.582032 2.851563 3.175781 2.589844 8.058593-.582031 10.914062l-55.789063 50.128906c-3.070312 2.757813-7.738281 2.605469-10.621093-.277344zm0 0" data-original="#000000" class=""/><path d="m169.855469 261.882812c-2.878907-2.882812-3.035157-7.546874-.28125-10.617187l72.402343-80.730469c2.851563-3.175781 7.734376-3.441406 10.910157-.59375 3.191406 2.84375 3.441406 7.734375.59375 10.910156l-72.40625 80.730469c-2.847657 3.175781-7.734375 3.441407-10.910157.59375-.105468-.09375-.207031-.191406-.308593-.292969zm0 0" data-original="#000000" class=""/></g><path d="m283.117188 374.703125c-.101563-.101563-.203126-.203125-.296876-.3125-2.847656-3.179687-2.582031-8.0625.597657-10.910156l98.535156-88.308594c3.179687-2.84375 8.078125-2.566406 10.914063.601563 2.847656 3.175781 2.578124 8.058593-.597657 10.910156l-98.539062 88.304687c-3.070313 2.75-7.734375 2.59375-10.613281-.285156zm0 0" fill="#f3e8d6" data-original="#F3E8D6" class="" style="fill:#67A478" data-old_color="#67A377"/><path d="m136.722656 228.308594c-2.878906-2.878906-3.039062-7.539063-.289062-10.609375l132.902344-148.480469c2.84375-3.175781 7.730468-3.449219 10.910156-.601562 3.175781 2.851562 3.449218 7.730468.601562 10.910156l-132.898437 148.476562c-2.847657 3.179688-7.730469 3.449219-10.910157.605469-.109374-.097656-.214843-.199219-.316406-.300781zm0 0" fill="#dbcdbd" data-original="#DBCDBD" class="" style="fill:#9E7349" data-old_color="#9E734A"/><path d="m210.199219 301.785156c-3.019531-3.015625-3.019531-7.910156 0-10.925781l37.851562-37.855469c3.019531-3.015625 7.910157-3.015625 10.925781 0 3.019532 3.015625 3.019532 7.910156 0 10.925782l-37.851562 37.855468c-3.015625 3.015625-7.910156 3.015625-10.925781 0zm0 0" fill="#dbcdbd" data-original="#DBCDBD" class="" style="fill:#9E7349" data-old_color="#9E734A"/><path d="m279.261719 425.828125-193.664063-193.667969c-11.695312-11.695312-11.695312-30.660156 0-42.355468l4.882813-4.882813c5.414062-5.414063 14.191406-5.414063 19.605469 0l216.417968 216.414063c5.414063 5.414062 5.414063 14.195312 0 19.609374l-4.882812 4.882813c-11.695313 11.695313-30.660156 11.695313-42.359375 0zm0 0" fill="#ff8c51" data-original="#FF8C51" class="active-path" style="fill:#FF4700" data-old_color="#FF4F00"/><path d="m326.503906 401.335938-35.804687-35.804688-24.492188 24.488281c-6.28125 6.28125-16.46875 6.28125-22.75 0l35.808594 35.808594c11.695313 11.695313 30.660156 11.695313 42.355469 0l4.882812-4.882813c5.414063-5.414062 5.414063-14.195312 0-19.609374zm0 0" fill="#f26e3b" data-original="#F26E3B" class="" style="fill:#FF8C00" data-old_color="#FF9300"/></g> </svg>
