<?xml version="1.0"?>
<svg xmlns="http://www.w3.org/2000/svg" xmlns:xlink="http://www.w3.org/1999/xlink" version="1.1" id="Layer_1" x="0px" y="0px" viewBox="0 0 286.054 286.054" style="enable-background:new 0 0 286.054 286.054;" xml:space="preserve" width="512px" height="512px" class=""><g><g>
	<path d="M143.027,0.004C64.04,0.004,0,64.036,0,143.022c0,78.996,64.04,143.027,143.027,143.027   s143.027-64.031,143.027-143.027C286.054,64.045,222.014,0.004,143.027,0.004z M143.027,259.232   c-64.183,0-116.209-52.026-116.209-116.209s52.026-116.21,116.209-116.21s116.209,52.026,116.209,116.209   S207.21,259.232,143.027,259.232z M169.844,98.327h-53.635c-9.869,0-17.878,8.01-17.878,17.878v53.635   c0,9.869,8.01,17.878,17.878,17.878h53.635c9.869,0,17.878-8.01,17.878-17.878v-53.635   C187.723,106.336,179.713,98.327,169.844,98.327z" data-original="#2394BC" class="active-path" data-old_color="#F01002" fill="#F00E00"/>
</g></g> </svg>
