<svg height="512pt" viewBox="0 0 512 512" width="512pt" xmlns="http://www.w3.org/2000/svg"><path d="m256 512c-41.410156 0-82.398438-7.820312-119.164062-22.691406-6.503907 4.9375-13.507813 9.15625-20.890626 12.554687-22.164062 10.253907-46.40625 12.757813-70.253906 7.28125l-45.691406-10.34375 26.839844-19.363281c13.578125-10.136719 23.761718-24.625 29.210937-41.367188-35.582031-34.351562-56.050781-78.023437-56.050781-122.070312 0-107.519531 115.390625-195 256-195 25.386719 0 50.421875 2.828125 74.414062 8.40625 108.019532 25.050781 181.585938 100.035156 181.585938 186.59375 0 107.519531-115.390625 196-256 196zm0 0" fill="#ffda2d"/><path d="m512 316c0-86.558594-73.566406-161.542969-181.585938-186.59375-23.992187-5.578125-49.027343-8.40625-74.414062-8.40625v391c140.609375 0 256-88.480469 256-196zm0 0" fill="#fdbf00"/><path d="m136 361c-24.8125 0-45-20.1875-45-45s20.1875-45 45-45 45 20.1875 45 45-20.1875 45-45 45zm0 0" fill="#3e5959"/><path d="m256 361c-24.8125 0-45-20.1875-45-45s20.1875-45 45-45 45 20.1875 45 45-20.1875 45-45 45zm0 0" fill="#3e5959"/><path d="m256 271c-.019531 0-.03125.003906-.050781.003906v89.988282c.019531 0 .03125.007812.050781.007812 24.8125 0 45-20.1875 45-45 0-24.816406-20.1875-45-45-45zm0 0" fill="#293939"/><path d="m376 361c-24.8125 0-45-20.1875-45-45s20.1875-45 45-45 45 20.1875 45 45-20.1875 45-45 45zm0 0" fill="#293939"/><path d="m383.800781 64.300781-110.699219 110.398438-31.800781 95.398437 95.699219-31.796875 121.789062-121.789062-51.378906-49.011719zm0 0" fill="#00ab94"/><path d="m449 0-44.199219 43.300781 3.074219 24.261719-.464844-.0625 51.378906 49.011719 53.210938-53.511719zm0 0" fill="#95a8ce"/><path d="m511 149.199219-106.199219 105.898437-21.300781-21 84.902344-84.898437-21.003906-21.300781-63.597657-63.597657 21-21 63.601563 63.597657zm0 0" fill="#293939"/></svg>