<svg height="480pt" viewBox="-24 0 480 480.34799" width="480pt" xmlns="http://www.w3.org/2000/svg"><path d="m103.453125 48c-1.570313-9.84375-6.25-18.929688-13.359375-25.917969-8.964844-9.046875-21.183594-14.121093-33.917969-14.082031-26.511719 0-48 21.492188-48 48v392h352v-400zm0 0" fill="#ffeb99"/><path d="m103.453125 48h280c-1.570313-9.84375-6.25-18.929688-13.359375-25.917969-8.964844-9.046875-21.183594-14.121093-33.917969-14.082031h-280c12.734375-.039062 24.953125 5.035156 33.917969 14.082031 7.109375 6.988281 11.789062 16.074219 13.359375 25.917969zm0 0" fill="#b28141"/><path d="m48.175781 88h120v80h-120zm0 0" fill="#d80027"/><path d="m424.175781 344c.015625 47.992188-26.820312 91.957031-69.511719 113.878906-42.691406 21.917969-94.0625 18.105469-133.050781-9.878906-2.71875-1.917969-5.359375-4-7.917969-6.078125-50.234374-42.164063-60.476562-115.472656-23.71875-169.785156 36.761719-54.316407 108.625-72.058594 166.4375-41.097657 1.28125.722657 2.480469 1.441407 3.761719 2.160157 39.597657 22.84375 63.996094 65.085937 64 110.800781zm0 0" fill="#ffda44"/><path d="m330.117188 344 30.058593-30.054688 15.191407-15.199218-15.191407-15.195313-18.746093-18.75-45.253907 45.257813-45.257812-45.257813-33.9375 33.945313 45.25 45.253906-45.25 45.257812 33.9375 33.933594 45.257812-45.246094 45.253907 45.246094 18.746093-18.742187 15.191407-15.191407-15.191407-15.199218zm0 0" fill="#ff5023"/><g fill="#231f20"><path d="m200.175781 104h128v16h-128zm0 0"/><path d="m200.175781 144h128v16h-128zm0 0"/><path d="m40.175781 208h136v16h-136zm0 0"/><path d="m40.175781 248h104v16h-104zm0 0"/><path d="m176.175781 80h-136v96h136zm-16 80h-104v-64h104zm0 0"/><path d="m368.175781 228.640625v-172.640625h24.636719l-1.4375-9.28125c-1.839844-11.484375-7.308594-22.082031-15.601562-30.238281-10.433594-10.609375-24.714844-16.5546878-39.597657-16.480469h-280c-30.914062.0351562-55.964843 25.085938-56 56v400h218.878907c40.613281 28.246094 93.359374 32.210938 137.738281 10.351562 44.378906-21.855468 73.390625-66.085937 75.757812-115.5 2.363281-49.414062-22.289062-96.214843-64.375-122.210937zm-32-212.640625c15.902344.050781 30.289063 9.453125 36.71875 24h-263.039062c-2.574219-8.929688-7.425781-17.035156-14.082031-23.519531-.164063-.183594-.355469-.34375-.558594-.480469zm-320 424v-384c0-16.183594 9.757813-30.773438 24.71875-36.957031 14.957031-6.183594 32.167969-2.742188 43.597657 8.71875 5.878906 5.8125 9.746093 13.351562 11.042968 21.519531l1.117188 6.71875h255.523437v164.082031c-59.828125-27.082031-130.457031-7.523437-167.835937 46.46875-37.378906 53.996094-30.816406 126.988281 15.59375 173.449219zm352 0c-2.5625 1.839844-5.121093 3.679688-7.839843 5.359375-1.441407.882813-2.882813 1.761719-4.402344 2.640625-5.339844 3.128906-10.933594 5.804688-16.71875 8-38.546875 14.800781-81.996094 8.757812-115.039063-16-1.839843-1.359375-3.601562-2.800781-5.28125-4.238281-38.53125-32.472657-52.671875-85.5625-35.398437-132.898438 17.277344-47.339843 62.285156-78.839843 112.679687-78.863281 19.523438-.101562 38.769531 4.65625 56 13.839844l.476563.242187c36.21875 19.304688 60.058594 55.777344 63.203125 96.699219 3.144531 40.917969-14.839844 80.605469-47.679688 105.21875zm0 0"/><path d="m341.375 344 45.277344-45.28125-45.199219-45.199219-45.277344 45.28125-45.28125-45.28125-45.199219 45.199219 45.277344 45.28125-45.277344 45.28125 45.199219 45.199219 45.28125-45.28125 45.277344 45.28125 45.199219-45.199219zm.078125 67.921875-45.277344-45.28125-45.28125 45.28125-22.640625-22.640625 45.28125-45.28125-45.28125-45.28125 22.640625-22.636719 45.28125 45.277344 45.277344-45.277344 22.640625 22.636719-45.28125 45.28125 45.28125 45.28125zm0 0"/><path d="m40.175781 288h104v16h-104zm0 0"/></g></svg>