<svg height="512pt" viewBox="-6 0 512 512" width="512pt" xmlns="http://www.w3.org/2000/svg"><path d="m480.160156 84.675781h-460.46875c-4.761718-4.761719-7.429687-7.429687-12.191406-12.191406v-52.792969c4.761719-4.761718 7.429688-7.429687 12.191406-12.191406h460.46875c4.761719 4.761719 7.429688 7.429688 12.191406 12.191406v52.792969c-4.761718 4.761719-7.429687 7.429687-12.191406 12.191406zm0 0" fill="#d15573"/><path d="m37.5 72.484375v-52.792969l12.191406-12.191406h-30l-12.191406 12.191406v52.792969c4.761719 4.761719 7.429688 7.429687 12.191406 12.191406h30c-4.761718-4.761719-7.429687-7.429687-12.191406-12.191406zm0 0" fill="#c21d44"/><path d="m457.496094 84.675781-153.503906 182.785157h-108.132813l-153.503906-182.785157zm0 0" fill="#d15573"/><path d="m214.566406 504.5h-18.707031v-237.039062h108.128906v147.613281c-34.921875 34.921875-54.5 54.503906-89.421875 89.425781zm0 0" fill="#d15573"/><path d="m42.355469 84.675781 153.507812 182.785157h30l-153.507812-182.785157zm0 0" fill="#c21d44"/><path d="m225.863281 267.460938h-30v237.039062h18.703125l11.296875-11.296875zm0 0" fill="#c21d44"/><path d="m269.925781 53.589844h-15v-15h15zm-25 0h-15v-15h15zm0 0" fill="#fff"/><path d="m483.265625 0h-466.679687l-16.585938 16.585938v59.003906l16.585938 16.585937h466.679687l16.585937-16.585937v-59.003906zm1.585937 69.378906-7.796874 7.796875h-454.253907l-7.800781-7.796875v-46.578125l7.800781-7.800781h454.253907l7.796874 7.800781zm0 0"/><path d="m428.65625 107.351562-128.160156 152.609376h-101.140625l-128.160157-152.609376-11.484374 9.648438 128.652343 153.191406v241.808594h29.308594l93.820313-93.820312v-147.988282l128.652343-153.191406zm-132.167969 304.617188-85.027343 85.03125h-8.101563v-222.039062h93.128906zm0 0"/></svg>