<?xml version="1.0" encoding="iso-8859-1"?>
<!-- Generator: Adobe Illustrator 19.0.0, SVG Export Plug-In . SVG Version: 6.00 Build 0)  -->
<svg version="1.1" id="Capa_1" xmlns="http://www.w3.org/2000/svg" xmlns:xlink="http://www.w3.org/1999/xlink" x="0px" y="0px"
	 viewBox="0 0 480 480" style="enable-background:new 0 0 480 480;" xml:space="preserve">
<g>
	<path style="fill:#EC322C;" d="M477.656,234.344l-48-48l-11.312,11.312L452.688,232H272v16h180.688l-34.344,34.344l11.312,11.312
		l48-48c3.124-3.122,3.125-8.186,0.003-11.309C477.658,234.346,477.657,234.345,477.656,234.344L477.656,234.344z"/>
	<path style="fill:#EC322C;" d="M293.656,50.344l-48-48c-3.122-3.124-8.186-3.125-11.309-0.003
		c-0.001,0.001-0.002,0.002-0.003,0.003l-48,48l11.312,11.312L232,27.312V208h16V27.312l34.344,34.344L293.656,50.344z"/>
	<path style="fill:#EC322C;" d="M208,232H27.312l34.344-34.344l-11.312-11.312l-48,48c-3.124,3.122-3.125,8.186-0.003,11.309
		c0.001,0.001,0.002,0.002,0.003,0.003l48,48l11.312-11.312L27.312,248H208V232z"/>
	<path style="fill:#EC322C;" d="M282.344,418.344L248,452.688V272h-16v180.688l-34.344-34.344l-11.312,11.312l48,48
		c3.122,3.124,8.186,3.125,11.31,0.003c0.001-0.001,0.002-0.002,0.003-0.003l48-48L282.344,418.344z"/>
</g>
<circle style="fill:#FCD821;" cx="240" cy="240" r="32"/>
<path style="fill:#7FCDE5;" d="M480,72V8c0.003-4.416-3.575-7.997-7.991-8c-0.003,0-0.006,0-0.009,0h-64v16h44.688L262.024,206.664
	c-13.338-8.885-30.709-8.885-44.047,0L27.312,16H72V0H8C3.584-0.003,0.003,3.575,0,7.991C0,7.994,0,7.997,0,8v64h16V27.312
	l190.664,190.664c-8.885,13.338-8.885,30.709,0,44.047L16,452.688V408H0v64c-0.003,4.416,3.575,7.997,7.991,8
	c0.003,0,0.006,0,0.009,0h64v-16H27.312l190.664-190.664c13.338,8.885,30.709,8.885,44.047,0L452.688,464H408v16h64
	c4.416,0.003,7.997-3.575,8-7.991c0-0.003,0-0.006,0-0.009v-64h-16v44.688L273.336,262.024c8.885-13.338,8.885-30.709,0-44.047
	L464,27.313V72L480,72z M240,264c-13.255,0-24-10.745-24-24c0-13.255,10.745-24,24-24c13.255,0,24,10.745,24,24
	C263.986,253.249,253.249,263.986,240,264z"/>
<g>
</g>
<g>
</g>
<g>
</g>
<g>
</g>
<g>
</g>
<g>
</g>
<g>
</g>
<g>
</g>
<g>
</g>
<g>
</g>
<g>
</g>
<g>
</g>
<g>
</g>
<g>
</g>
<g>
</g>
</svg>
