<svg height="512pt" viewBox="-9 0 512 512.00012" width="512pt" xmlns="http://www.w3.org/2000/svg"><path d="m427.128906 234.527344v262.472656h-371.160156v-264.109375l123.460938-155.339844c12.417968-15.640625 29.296874-25.140625 47.117187-28.511719 4.953125-.929687 9.972656-1.398437 14.992187-1.390624h.007813c5.03125.011718 10.0625.492187 15.011719 1.441406 17.828125 3.4375 34.679687 13.007812 47.050781 28.710937zm0 0" fill="#fff49c"/><path d="m427.128906 234.527344v262.472656h-185.589844v-449.351562h.007813c5.03125.011718 10.0625.492187 15.011719 1.441406 17.828125 3.4375 34.679687 13.007812 47.050781 28.710937zm0 0" fill="#fee276"/><path d="m349.089844 342.609375v154.390625h-82.289063v-154.390625c0-19.480469 15.855469-35.320313 35.351563-35.320313h11.574218c19.496094 0 35.363282 15.839844 35.363282 35.320313zm0 0" fill="#173755"/><path d="m163.465394 366.839724h52.359375" fill="none" stroke="#000" stroke-miterlimit="10" stroke-width="30" transform="translate(-17.00055 .00012)"/><path d="m377.253906 196.898438v30h-273.210937v-30h122.503906v-127.859376c4.953125-.929687 9.980469-1.398437 15-1.390624 5.03125.011718 10.0625.492187 15.011719 1.441406v127.808594zm0 0" fill="#ffc277"/><path d="m377.253906 196.898438v30h-135.707031v-159.25c5.03125.011718 10.0625.492187 15.011719 1.441406v127.808594zm0 0" fill="#ff9c20"/><path d="m406.511719 27.777344h-38.515625c-11.371094 0-20.621094 9.246094-20.621094 20.613281v85.160156l79.753906 101.199219v-186.359375c0-11.363281-9.25-20.613281-20.617187-20.613281zm0 0" fill="#ee5454"/><path d="m461.539062 300.378906c-7.96875 6.28125-17.449218 9.332032-26.851562 9.332032-2.539062 0-5.058594-.222657-7.558594-.660157-10.101562-1.769531-19.621094-7.121093-26.492187-15.789062l-156.367188-198.773438c-.691406-.878906-1.710937-1.296875-2.722656-1.257812-.929687.019531-1.859375.441406-2.488281 1.238281l-161.699219 203.121094c-5.699219 7.199218-13.222656 12.101562-21.390625 14.558594-13.128906 3.992187-27.921875 1.691406-39.5-7.4375-18.78125-14.820313-21.96875-42.039063-7.128906-60.800782l46.628906-58.671875 123.460938-155.339843c15.867187-19.976563 39.007812-29.9375005 62.117187-29.898438 23.132813.0390625 46.25 10.089844 62.0625 30.148438l123.519531 156.730468 41.53125 52.703125c14.839844 18.757813 11.648438 45.976563-7.121094 60.796875zm0 0" fill="#1b6aa6"/><path d="m461.535156 300.378906c-7.964844 6.28125-17.449218 9.332032-26.851562 9.332032-12.804688 0-25.476563-5.640626-34.042969-16.449219l-156.371094-198.773438c-.6875-.878906-1.710937-1.296875-2.71875-1.257812v-93.230469c23.128907.0390625 46.246094 10.089844 62.054688 30.148438l165.050781 209.433593c14.847656 18.757813 11.65625 45.976563-7.121094 60.796875zm0 0" fill="#173755"/><path d="m216.382812 342.691406v93.425782c0 8.863281-7.203124 16.0625-16.066406 16.0625h-50.238281c-8.863281 0-16.066406-7.199219-16.066406-16.0625v-93.425782c0-19.476562 15.855469-35.335937 35.351562-35.335937h11.664063c19.488281 0 35.355468 15.859375 35.355468 35.335937zm0 0" fill="#fff"/><path d="m216.382812 342.691406v24.019532h-82.375v-24.019532c0-19.476562 15.859376-35.335937 35.355469-35.335937h11.664063c19.488281 0 35.355468 15.859375 35.355468 35.335937zm0 0" fill="#ffc277"/><path d="m447.136719 497c0 8.28125-6.722657 15-15.003907 15h-381.164062c-8.292969 0-15.007812-6.71875-15.007812-15s6.714843-15 15.007812-15h381.164062c8.285157 0 15.003907 6.71875 15.003907 15zm0 0" fill="#00db7e"/><path d="m447.136719 497c0 8.28125-6.722657 15-15.003907 15h-190.582031v-30h190.582031c8.285157 0 15.003907 6.71875 15.003907 15zm0 0" fill="#00a863"/></svg>