<svg height="512pt" viewBox="0 -44 512 512" width="512pt" xmlns="http://www.w3.org/2000/svg"><path d="m368.636719 355.878906h-361.132813v-93.9375h361.132813v-52.550781l130.964843 99.519531-130.964843 99.519532zm0 0" fill="#e2fc85"/><path d="m143.363281 161.605469h361.132813v-93.9375h-361.132813v-52.550781l-130.964843 99.519531 130.964843 99.519531zm0 0" fill="#e2fc85"/><path d="m143.363281 191.359375-100.96875-76.722656 100.96875-76.722657v-22.796874l-130.964843 99.519531 130.964843 99.519531zm0 0" fill="#6ad34d"/><path d="m7.503906 261.941406h30v93.9375h-30zm0 0" fill="#6ad34d"/><path d="m361.136719 423.546875v-60.167969h-312.847657v-15h327.847657v44.929688l111.070312-84.398438-111.070312-84.402344v44.933594h-361.132813v78.9375h13.285156v15h-28.28515575v-108.9375h361.13281275v-60.167968l150.863281 114.636718zm0 0"/><path d="m150.863281 229.273438-150.863281-114.636719 150.863281-114.636719v60.167969h361.132813v108.9375h-182.105469v-15h167.105469v-78.9375h-361.132813v-44.929688l-111.070312 84.398438 111.070312 84.402343v-44.933593h174.027344v15h-159.027344zm0 0"/><path d="m376.136719 328.910156h-15v-15h15zm0-25h-15v-15h15zm0 0" fill="#fff"/></svg>