<svg height="512" viewBox="0 0 128 128" width="512" xmlns="http://www.w3.org/2000/svg"><path d="m124.047 10.994h-16.732v108.056a2.953 2.953 0 0 1 -2.953 2.95h-63.992v2.044a2.953 2.953 0 0 0 2.953 2.956h80.723a2.953 2.953 0 0 0 2.954-2.953v-110.1a2.953 2.953 0 0 0 -2.953-2.953z" fill="#dcdcd2"/><path d="m113.014 57.591 4.483-4.482-7.975-7.975-2.207 2.207v18.489a15.008 15.008 0 0 1 0 8.341v18.489l2.207 2.207 7.975-7.975-4.483-4.483a23.709 23.709 0 0 0 2.807-6.77h6.337v-11.278h-6.337a23.712 23.712 0 0 0 -2.807-6.77z" fill="#c8c8be"/><path d="m109.362 11h-2.047v108.05a2.953 2.953 0 0 1 -2.953 2.95h-63.992v2.044a2.953 2.953 0 0 0 2.953 2.956h66.07a2.951 2.951 0 0 0 2.922-2.95v-110.1a2.953 2.953 0 0 0 -2.953-2.95z" fill="#c8c8be"/><path d="m84.676 117.006a2.953 2.953 0 0 0 2.953-2.953v-103.053h-15.454l-31.805 31.8v74.2z" fill="#a99be0"/><path d="m104.362 6h-16.732v108.053a2.953 2.953 0 0 1 -2.953 2.953h-63.992v2.044a2.953 2.953 0 0 0 2.953 2.95h80.723a2.953 2.953 0 0 0 2.953-2.953v-110.097a2.953 2.953 0 0 0 -2.952-2.95z" fill="#f0f0e6"/><path d="m107.315 92.66v-18.49a15.225 15.225 0 0 1 -19.685 10.252v15.106h10.639v-6.337a23.708 23.708 0 0 0 6.77-2.807z" fill="#dcdcd2"/><path d="m98.269 46.809v-6.337h-10.639v15.106a15.225 15.225 0 0 1 19.685 10.252v-18.49l-2.276 2.276a23.71 23.71 0 0 0 -6.77-2.807z" fill="#dcdcd2"/><path d="m89.676 6h-2.046v108.053a2.953 2.953 0 0 1 -2.953 2.953h-63.992v2.044a2.953 2.953 0 0 0 2.953 2.95h66.07a2.951 2.951 0 0 0 2.922-2.95v-110.097a2.953 2.953 0 0 0 -2.954-2.953z" fill="#dcdcd2"/><path d="m3.953 117.006h80.723a2.953 2.953 0 0 0 2.953-2.953v-110.1a2.953 2.953 0 0 0 -2.953-2.953h-51.868l-31.808 31.808v81.245a2.953 2.953 0 0 0 2.953 2.953z" fill="#fffffa"/><path d="m87.63 99.528v-15.106a15.258 15.258 0 0 1 0-28.844v-15.106h-.639v6.337a23.71 23.71 0 0 0 -6.77 2.807l-4.483-4.483-7.975 7.975 4.483 4.482a23.708 23.708 0 0 0 -2.807 6.77h-6.339v11.279h6.337a23.711 23.711 0 0 0 2.807 6.77l-4.483 4.483 7.975 7.975 4.483-4.482a23.708 23.708 0 0 0 6.77 2.807v6.337z" fill="#dcdcd2"/><path d="m32.808 1-31.808 31.808v6h28.855a8.964 8.964 0 0 0 8.953-8.953v-28.855z" fill="#dcdcd2"/><path d="m1 32.808h28.855a2.953 2.953 0 0 0 2.953-2.953v-28.855z" fill="#f0f0e6"/><path d="m110.821 58.361a23.711 23.711 0 0 0 -2.807-6.77l4.483-4.483-7.975-7.975-4.483 4.483a23.709 23.709 0 0 0 -6.77-2.807v-6.337h-11.278v6.337a23.709 23.709 0 0 0 -6.77 2.807l-4.483-4.483-7.975 7.975 4.483 4.483a23.709 23.709 0 0 0 -2.807 6.77h-6.339v11.278h6.337a23.712 23.712 0 0 0 2.807 6.77l-4.483 4.483 7.975 7.975 4.483-4.483a23.709 23.709 0 0 0 6.77 2.807v6.337h11.28v-6.337a23.709 23.709 0 0 0 6.77-2.807l4.483 4.483 7.975-7.975-4.483-4.483a23.71 23.71 0 0 0 2.807-6.77h6.337v-11.278zm-23.191 20.915a15.276 15.276 0 1 1 15.276-15.276 15.276 15.276 0 0 1 -15.276 15.276z" fill="#e678a0"/><path d="m102.412 45.989 4.483-4.482-2.373-2.373-4.482 4.483a23.749 23.749 0 0 0 -4.4-2.082s4.7 3.19 6.772 4.454z" fill="#fa8cb4"/><path d="m84.364 43.182v-6.337h8.905v-2.373h-11.278v6.337a23.71 23.71 0 0 0 -6.77 2.807l2.373 2.373a23.708 23.708 0 0 1 6.77-2.807z" fill="#fa8cb4"/><path d="m99.547 54.456a15.266 15.266 0 0 1 -21.461 21.461 15.269 15.269 0 1 0 21.461-21.461z" fill="#fa8cb4"/><path d="m65.136 49.481 7.975-7.975-2.373-2.373-7.975 7.975 3.428 3.428z" fill="#fa8cb4"/><path d="m60.475 66.373v-5.639h6.337a23.712 23.712 0 0 1 2.807-6.77l-2.373-2.373a23.708 23.708 0 0 0 -2.807 6.77h-6.339v11.278h2.373z" fill="#fa8cb4"/><path d="m69.619 78.782c-1.264-2.072-4.454-6.77-4.454-6.77a23.75 23.75 0 0 0 2.081 4.4l-4.483 4.483 7.975 7.975-5.6-5.6z" fill="#fa8cb4"/><path d="m45.045 90.315a13.534 13.534 0 0 0 -1.6-3.864l2.555-2.559-4.55-4.552-2.559 2.56a13.533 13.533 0 0 0 -3.864-1.6v-3.621h-6.438v3.621a13.533 13.533 0 0 0 -3.864 1.6l-2.559-2.56-4.552 4.552 2.559 2.559a13.533 13.533 0 0 0 -1.6 3.864h-3.619v6.438h3.617a13.534 13.534 0 0 0 1.6 3.864l-2.559 2.559 4.552 4.552 2.559-2.559a13.533 13.533 0 0 0 3.864 1.6v3.617h6.438v-3.616a13.533 13.533 0 0 0 3.864-1.6l2.559 2.559 4.552-4.554-2.559-2.559a13.533 13.533 0 0 0 1.6-3.864h3.617v-6.437zm-13.237 11.938a8.719 8.719 0 1 1 8.719-8.719 8.719 8.719 0 0 1 -8.719 8.719z" fill="#dcdcd2"/><path d="m42.788 88.315a13.534 13.534 0 0 0 -1.6-3.864l2.559-2.559-4.554-4.552-2.559 2.56a13.533 13.533 0 0 0 -3.864-1.6v-3.621h-6.438v3.621a13.533 13.533 0 0 0 -3.864 1.6l-2.559-2.56-4.552 4.552 2.559 2.559a13.533 13.533 0 0 0 -1.6 3.864h-3.616v6.438h3.617a13.534 13.534 0 0 0 1.6 3.864l-2.559 2.559 4.552 4.552 2.559-2.559a13.533 13.533 0 0 0 3.864 1.6v3.617h6.437v-3.616a13.533 13.533 0 0 0 3.864-1.6l2.559 2.559 4.552-4.552-2.559-2.559a13.533 13.533 0 0 0 1.6-3.864h3.617v-6.439zm-13.237 11.938a8.719 8.719 0 1 1 8.719-8.719 8.719 8.719 0 0 1 -8.719 8.719z" fill="#ffe885"/><path d="m32.808 5.883v-4.883l-31.808 31.808h4.883z" fill="#fffffa"/><path d="m52.952 23.617a.446.446 0 0 1 -.375.188.686.686 0 0 1 -.422-.141l-6.755-6.329a.568.568 0 0 1 0-.844l6.751-6.329a.686.686 0 0 1 .422-.141.446.446 0 0 1 .375.188l2.016 2.156a.506.506 0 0 1 .164.422.6.6 0 0 1 -.164.375l-4.264 3.751 4.266 3.75a.6.6 0 0 1 .164.375.506.506 0 0 1 -.164.422zm5.348 5.251a.445.445 0 0 0 .422-.023.71.71 0 0 0 .278-.352l6.376-22.034a.445.445 0 0 0 -.023-.422.71.71 0 0 0 -.353-.281l-2.86-.844a.56.56 0 0 0 -.422.07.71.71 0 0 0 -.281.352l-6.375 22.034a.445.445 0 0 0 .023.422.71.71 0 0 0 .352.281zm9.986-5.2a.686.686 0 0 1 -.422.141.446.446 0 0 1 -.375-.188l-2.016-2.156a.506.506 0 0 1 -.164-.422.6.6 0 0 1 .164-.375l4.266-3.75-4.266-3.75a.6.6 0 0 1 -.164-.375.506.506 0 0 1 .164-.422l2.016-2.156a.56.56 0 0 1 .4-.188.653.653 0 0 1 .4.141l6.751 6.329a.568.568 0 0 1 0 .844z" fill="#bee6ff"/><g fill="#785ae6"><path d="m124.047 128h-80.724a3.958 3.958 0 0 1 -3.953-3.953v-2.047a1 1 0 0 1 1-1h63.991a1.956 1.956 0 0 0 1.954-1.953v-15.854a1 1 0 0 1 2 0v15.857a3.958 3.958 0 0 1 -3.954 3.95h-62.991v1.044a1.955 1.955 0 0 0 1.953 1.956h80.724a1.955 1.955 0 0 0 1.953-1.953v-110.1a1.956 1.956 0 0 0 -1.953-1.954h-15.732v29.52l4.885 4.887a1 1 0 0 1 0 1.414l-3.936 3.936a24.67 24.67 0 0 1 2.326 5.609h5.563a1 1 0 0 1 1 1v11.28a1 1 0 0 1 -1 1h-5.563a24.678 24.678 0 0 1 -2.326 5.61l3.936 3.936a1 1 0 0 1 0 1.414l-4.889 4.889v7.04a1 1 0 0 1 -2 0v-7.455a1 1 0 0 1 .293-.707l4.475-4.475-3.776-3.775a1 1 0 0 1 -.146-1.228 22.719 22.719 0 0 0 2.689-6.485 1 1 0 0 1 .972-.765h5.336v-9.278h-5.336a1 1 0 0 1 -.972-.765 22.725 22.725 0 0 0 -2.689-6.484 1 1 0 0 1 .146-1.228l3.776-3.775-4.475-4.475a1 1 0 0 1 -.293-.707v-30.933a1 1 0 0 1 1-1h16.732a3.958 3.958 0 0 1 3.957 3.954v110.1a3.958 3.958 0 0 1 -3.953 3.953z"/><path d="m100.039 44.616a1 1 0 0 1 -.521-.146 22.7 22.7 0 0 0 -6.485-2.689 1 1 0 0 1 -.764-.972v-5.336h-4.639a1 1 0 0 1 -1-1v-14.654a1 1 0 0 1 2 0v13.654h4.639a1 1 0 0 1 1 1v5.563a24.749 24.749 0 0 1 5.61 2.326l3.935-3.936a1.029 1.029 0 0 1 1.414 0l1.086 1.087v-30.563a1.956 1.956 0 0 0 -1.953-1.95h-15.731v4a1 1 0 0 1 -2 0v-5a1 1 0 0 1 1-1h16.731a3.958 3.958 0 0 1 3.954 3.953v32.974a1 1 0 0 1 -1.707.707l-2.086-2.087-3.775 3.776a1 1 0 0 1 -.708.293z"/><path d="m104.361 123h-80.723a3.958 3.958 0 0 1 -3.953-3.953v-2.044a1 1 0 0 1 1-1h63.991a1.956 1.956 0 0 0 1.954-1.953v-20.523a1 1 0 0 1 1-1h4.639v-5.336a1 1 0 0 1 .764-.972 22.7 22.7 0 0 0 6.485-2.689 1 1 0 0 1 1.228.146l3.775 3.775 2.086-2.086a1 1 0 0 1 1.707.707v7.454a1 1 0 0 1 -2 0v-5.04l-1.086 1.086a1 1 0 0 1 -1.414 0l-3.935-3.936a24.708 24.708 0 0 1 -5.61 2.327v5.563a1 1 0 0 1 -1 1h-4.639v19.525a3.958 3.958 0 0 1 -3.954 3.953h-62.991v1.044a1.955 1.955 0 0 0 1.953 1.952h80.723a1.956 1.956 0 0 0 1.954-1.953v-15.854a1 1 0 0 1 2 0v15.857a3.958 3.958 0 0 1 -3.954 3.95z"/><path d="m87.63 80.276a1 1 0 0 1 -1-1v-30.552a1 1 0 0 1 1-1 16.23 16.23 0 0 1 5.57.979 1 1 0 1 1 -.684 1.879 14.218 14.218 0 0 0 -3.887-.823v28.483a14.279 14.279 0 0 0 10.637-22.515 1 1 0 1 1 1.629-1.16 16.278 16.278 0 0 1 -13.265 25.709z"/><path d="m87.63 80.276a16.276 16.276 0 0 1 0-32.553 1 1 0 0 1 1 1v30.553a1 1 0 0 1 -1 1zm-1-30.519a14.277 14.277 0 0 0 0 28.484z"/><path d="m84.676 118.006h-80.723a3.958 3.958 0 0 1 -3.953-3.953v-5.665a1 1 0 0 1 2 0v5.665a1.955 1.955 0 0 0 1.953 1.953h80.723a1.956 1.956 0 0 0 1.954-1.953v-19.526h-4.639a1 1 0 0 1 -1-1v-5.562a24.74 24.74 0 0 1 -5.61-2.326l-3.935 3.935a1 1 0 0 1 -1.414 0l-7.976-7.974a1 1 0 0 1 0-1.414l3.935-3.936a24.692 24.692 0 0 1 -2.326-5.61h-5.565a1 1 0 0 1 -1-1v-11.28a1 1 0 0 1 1-1h5.563a24.661 24.661 0 0 1 2.326-5.609l-3.935-3.936a1 1 0 0 1 0-1.414l7.975-7.976a1 1 0 0 1 .707-.293 1 1 0 0 1 .707.293l3.935 3.936a24.7 24.7 0 0 1 5.61-2.326v-5.562a1 1 0 0 1 1-1h4.642v-13.654a1 1 0 0 1 2 0v14.654a1 1 0 0 1 -1 1h-4.639v5.336a1 1 0 0 1 -.764.972 22.684 22.684 0 0 0 -6.485 2.689 1 1 0 0 1 -1.228-.146l-3.775-3.776-6.561 6.562 3.775 3.775a1 1 0 0 1 .146 1.228 22.705 22.705 0 0 0 -2.688 6.487 1 1 0 0 1 -.972.765h-5.339v9.278h5.336a1 1 0 0 1 .972.765 22.726 22.726 0 0 0 2.692 6.481 1 1 0 0 1 -.146 1.228l-3.775 3.775 6.561 6.561 3.775-3.775a1 1 0 0 1 1.228-.146 22.684 22.684 0 0 0 6.485 2.689 1 1 0 0 1 .764.972v5.336h4.638a1 1 0 0 1 1 1v20.525a3.958 3.958 0 0 1 -3.954 3.952z"/><path d="m1 100.527a1 1 0 0 1 -1-1v-66.719a1 1 0 0 1 .293-.708l31.807-31.807a1 1 0 0 1 .708-.293h51.868a3.958 3.958 0 0 1 3.954 3.953v7.04a1 1 0 0 1 -2 0v-7.04a1.956 1.956 0 0 0 -1.954-1.953h-51.454l-31.222 31.222v66.305a1 1 0 0 1 -1 1z"/><path d="m29.854 33.808h-28.854a1 1 0 0 1 -.707-1.708l31.807-31.807a1 1 0 0 1 1.708.707v28.854a3.958 3.958 0 0 1 -3.954 3.954zm-26.44-2h26.44a1.956 1.956 0 0 0 1.954-1.953v-26.441z"/><path d="m93.269 94.527h-11.278a1 1 0 0 1 -1-1v-5.562a24.74 24.74 0 0 1 -5.61-2.326l-3.935 3.935a1 1 0 0 1 -1.414 0l-7.976-7.974a1 1 0 0 1 0-1.414l3.935-3.936a24.707 24.707 0 0 1 -2.326-5.609h-5.565a1 1 0 0 1 -1-1v-11.281a1 1 0 0 1 1-1h5.563a24.661 24.661 0 0 1 2.326-5.609l-3.935-3.936a1 1 0 0 1 0-1.414l7.975-7.975a1 1 0 0 1 1.414 0l3.935 3.935a24.74 24.74 0 0 1 5.61-2.326v-5.562a1 1 0 0 1 1-1h11.281a1 1 0 0 1 1 1v5.563a24.708 24.708 0 0 1 5.61 2.327l3.935-3.936a1 1 0 0 1 1.414 0l7.972 7.973a1 1 0 0 1 0 1.414l-3.935 3.936a24.705 24.705 0 0 1 2.326 5.609h5.563a1 1 0 0 1 1 1v11.281a1 1 0 0 1 -1 1h-5.563a24.705 24.705 0 0 1 -2.326 5.609l3.935 3.936a1 1 0 0 1 0 1.414l-7.975 7.975a1 1 0 0 1 -1.414 0l-3.935-3.936a24.708 24.708 0 0 1 -5.61 2.327v5.563a1 1 0 0 1 -.997.999zm-10.278-2h9.278v-5.336a1 1 0 0 1 .764-.972 22.7 22.7 0 0 0 6.485-2.689 1 1 0 0 1 1.228.146l3.775 3.775 6.561-6.561-3.775-3.775a1 1 0 0 1 -.147-1.228 22.732 22.732 0 0 0 2.689-6.484 1 1 0 0 1 .972-.765h5.336v-9.278h-5.336a1 1 0 0 1 -.972-.765 22.732 22.732 0 0 0 -2.689-6.484 1 1 0 0 1 .147-1.228l3.775-3.775-6.561-6.561-3.775 3.775a1 1 0 0 1 -1.228.146 22.7 22.7 0 0 0 -6.485-2.689 1 1 0 0 1 -.764-.972v-5.334h-9.278v5.336a1 1 0 0 1 -.764.972 22.684 22.684 0 0 0 -6.485 2.689 1 1 0 0 1 -1.228-.146l-3.775-3.775-6.561 6.561 3.775 3.775a1 1 0 0 1 .146 1.228 22.705 22.705 0 0 0 -2.688 6.487 1 1 0 0 1 -.972.765h-5.339v9.275h5.336a1 1 0 0 1 .972.765 22.72 22.72 0 0 0 2.692 6.484 1 1 0 0 1 -.146 1.228l-3.775 3.775 6.561 6.561 3.775-3.775a1 1 0 0 1 1.228-.146 22.684 22.684 0 0 0 6.485 2.689 1 1 0 0 1 .764.972zm4.639-12.251a16.276 16.276 0 1 1 5.57-31.576 1 1 0 1 1 -.684 1.879 14.284 14.284 0 1 0 6.749 5.146 1 1 0 1 1 1.629-1.16 16.278 16.278 0 0 1 -13.264 25.711z"/><path d="m32.77 109.388h-6.438a1 1 0 0 1 -1-1v-2.854a14.506 14.506 0 0 1 -2.7-1.118l-2.018 2.018a1 1 0 0 1 -1.414 0l-4.552-4.552a1 1 0 0 1 0-1.414l2.018-2.018a14.5 14.5 0 0 1 -1.118-2.7h-2.848a1 1 0 0 1 -1-1v-6.436a1 1 0 0 1 1-1h2.85a14.5 14.5 0 0 1 1.118-2.7l-2.018-2.014a1 1 0 0 1 0-1.414l4.55-4.553a1 1 0 0 1 1.414 0l2.018 2.018a14.506 14.506 0 0 1 2.7-1.118v-2.853a1 1 0 0 1 1-1h6.438a1 1 0 0 1 1 1v2.853a14.5 14.5 0 0 1 2.7 1.118l2.018-2.018a1.029 1.029 0 0 1 1.414 0l4.552 4.552a1 1 0 0 1 0 1.414l-2.018 2.018a14.5 14.5 0 0 1 1.118 2.7h2.853a1 1 0 0 1 1 1v6.438a1 1 0 0 1 -1 1h-2.855a14.5 14.5 0 0 1 -1.118 2.7l2.018 2.018a1 1 0 0 1 0 1.414l-4.552 4.547a1 1 0 0 1 -.707.293 1 1 0 0 1 -.707-.293l-2.018-2.018a14.5 14.5 0 0 1 -2.7 1.118v2.854a1 1 0 0 1 -.998 1zm-5.438-2h4.438v-2.617a1 1 0 0 1 .764-.972 12.545 12.545 0 0 0 3.579-1.484 1 1 0 0 1 1.228.146l1.851 1.852 3.138-3.138-1.852-1.852a1 1 0 0 1 -.146-1.228 12.545 12.545 0 0 0 1.484-3.579 1 1 0 0 1 .972-.765h2.617v-4.437h-2.617a1 1 0 0 1 -.972-.765 12.545 12.545 0 0 0 -1.484-3.579 1 1 0 0 1 .146-1.228l1.852-1.852-3.138-3.138-1.851 1.852a1 1 0 0 1 -1.228.146 12.545 12.545 0 0 0 -3.579-1.484 1 1 0 0 1 -.764-.972v-2.614h-4.438v2.62a1 1 0 0 1 -.764.972 12.554 12.554 0 0 0 -3.579 1.484 1 1 0 0 1 -1.228-.146l-1.851-1.856-3.138 3.138 1.852 1.852a1 1 0 0 1 .146 1.228 12.545 12.545 0 0 0 -1.484 3.579 1 1 0 0 1 -.972.765h-2.614v4.438h2.617a1 1 0 0 1 .972.765 12.545 12.545 0 0 0 1.481 3.581 1 1 0 0 1 -.146 1.228l-1.852 1.852 3.138 3.138 1.852-1.852a1 1 0 0 1 1.228-.146 12.554 12.554 0 0 0 3.579 1.484 1 1 0 0 1 .764.972zm2.219-6.135a9.72 9.72 0 1 1 9.719-9.72 9.731 9.731 0 0 1 -9.719 9.72zm0-17.439a7.72 7.72 0 1 0 7.719 7.72 7.728 7.728 0 0 0 -7.719-7.721z"/><path d="m58.5 29.91a1.52 1.52 0 0 1 -.511-.09l-2.819-.786a1.036 1.036 0 0 1 -.109-.034 1.728 1.728 0 0 1 -.823-.679 1.435 1.435 0 0 1 -.1-1.323l1.331-4.6-1.758 1.872a1.59 1.59 0 0 1 -2.156.194.877.877 0 0 1 -.084-.07l-6.75-6.329a1.593 1.593 0 0 1 -.5-1.151 1.573 1.573 0 0 1 .48-1.129l6.773-6.352a.877.877 0 0 1 .084-.07 1.59 1.59 0 0 1 2.156.194l1.986 2.127a1.483 1.483 0 0 1 .429 1.2 1.59 1.59 0 0 1 -.452.982l-3.459 3.043 3.412 3a1.683 1.683 0 0 1 .388.57l4.46-15.428a.964.964 0 0 1 .033-.1 1.715 1.715 0 0 1 .679-.825 1.547 1.547 0 0 1 1.148-.2l2.946.865a1.775 1.775 0 0 1 .917.71 1.435 1.435 0 0 1 .1 1.323l-1.331 4.6 1.782-1.907a1.561 1.561 0 0 1 1.129-.5 1.659 1.659 0 0 1 1 .341.877.877 0 0 1 .084.07l6.751 6.329a1.593 1.593 0 0 1 .5 1.151 1.573 1.573 0 0 1 -.48 1.129l-6.774 6.352a.877.877 0 0 1 -.084.07 1.594 1.594 0 0 1 -2.156-.193l-1.988-2.127a1.483 1.483 0 0 1 -.429-1.2 1.59 1.59 0 0 1 .452-.982l3.459-3.044-3.412-3a1.685 1.685 0 0 1 -.388-.57l-4.456 15.428a1.773 1.773 0 0 1 -.712.921 1.4 1.4 0 0 1 -.748.218zm-2.356-2.681 2.024.564 6.132-21.206-2.013-.587zm-.116.4v.015zm10.467-6.537 1.433 1.532 6.094-5.713-6.095-5.711-1.434 1.534 3.9 3.428a1 1 0 0 1 0 1.5zm-20.078-4.179 6.093 5.713 1.434-1.533-3.9-3.429a1 1 0 0 1 0-1.5l3.9-3.429-1.434-1.535zm7.821 3.865-.007.008zm11.938-.024.013.014zm-11.927-7.694.013.014zm11.959-.019-.008.008zm-1.792-6.86v.015z"/><path d="m32.808 44.169h-23.368a1 1 0 0 1 0-2h23.368a1 1 0 0 1 0 2z"/><path d="m49.662 44.169h-8.427a1 1 0 0 1 0-2h8.427a1 1 0 1 1 0 2z"/><path d="m49.662 54.743h-40.222a1 1 0 0 1 0-2h40.222a1 1 0 1 1 0 2z"/><path d="m49.662 65.318h-40.222a1 1 0 0 1 0-2h40.222a1 1 0 0 1 0 2z"/></g></svg>