<?xml version="1.0" encoding="iso-8859-1"?>
<!-- Generator: Adobe Illustrator 21.0.0, SVG Export Plug-In . SVG Version: 6.00 Build 0)  -->
<svg xmlns="http://www.w3.org/2000/svg" xmlns:xlink="http://www.w3.org/1999/xlink" version="1.1" id="Capa_1" x="0px" y="0px" viewBox="0 0 506.823 506.823" style="enable-background:new 0 0 506.823 506.823;" xml:space="preserve" width="512" height="512">
<g>
	<path style="fill:#D47A3D;" d="M434.999,0H71.825c-4.143,0-7.5,3.358-7.5,7.5v491.823c0,4.142,3.357,7.5,7.5,7.5h363.174   c4.143,0,7.5-3.358,7.5-7.5V7.5C442.499,3.358,439.141,0,434.999,0z"/>
	<path style="fill:#FFF4F1;" d="M400.394,71.136H106.429c-4.143,0-7.5,3.358-7.5,7.5v383.748c0,4.142,3.357,7.5,7.5,7.5h293.965   c4.143,0,7.5-3.358,7.5-7.5V78.636C407.894,74.494,404.537,71.136,400.394,71.136z"/>
	<path style="fill:#B7692E;" d="M434.999,0h-23c4.143,0,7.5,3.358,7.5,7.5v491.823c0,4.142-3.357,7.5-7.5,7.5h23   c4.143,0,7.5-3.358,7.5-7.5V7.5C442.499,3.358,439.141,0,434.999,0z"/>
	<path style="fill:#ECEDEF;" d="M400.394,71.136h-23c4.143,0,7.5,3.358,7.5,7.5v383.748c0,4.142-3.357,7.5-7.5,7.5h23   c4.143,0,7.5-3.358,7.5-7.5V78.636C407.894,74.494,404.537,71.136,400.394,71.136z"/>
	<path style="fill:#F8B53C;" d="M346.471,42.957H160.352c-4.143,0-7.5,3.358-7.5,7.5v58.959c0,4.142,3.357,7.5,7.5,7.5h186.119   c4.143,0,7.5-3.358,7.5-7.5V50.457C353.971,46.314,350.614,42.957,346.471,42.957z"/>
	<path style="fill:#F9E075;" d="M280.363,24.269H226.46c-23.323,0-42.298,18.975-42.298,42.297v9.686c0,4.142,3.357,7.5,7.5,7.5   h123.498c4.143,0,7.5-3.358,7.5-7.5v-9.686C322.661,43.243,303.686,24.269,280.363,24.269z"/>
	<path style="fill:#F8A814;" d="M346.471,42.957h-23c4.143,0,7.5,3.358,7.5,7.5v58.959c0,4.142-3.357,7.5-7.5,7.5h23   c4.143,0,7.5-3.358,7.5-7.5V50.457C353.971,46.314,350.614,42.957,346.471,42.957z"/>
	<path style="fill:#F9CD45;" d="M280.363,24.269h-23c23.323,0,42.298,18.975,42.298,42.297v9.686c0,4.142-3.357,7.5-7.5,7.5h23   c4.143,0,7.5-3.358,7.5-7.5v-9.686C322.661,43.243,303.686,24.269,280.363,24.269z"/>
	<g>
		<path style="fill:#D0CFD1;" d="M152.866,158.639h215.859c4.143,0,7.5-3.358,7.5-7.5s-3.357-7.5-7.5-7.5H152.866    c-4.143,0-7.5,3.358-7.5,7.5S148.723,158.639,152.866,158.639z"/>
		<path style="fill:#D0CFD1;" d="M368.725,192.465H152.866c-4.143,0-7.5,3.358-7.5,7.5s3.357,7.5,7.5,7.5h215.859    c4.143,0,7.5-3.358,7.5-7.5S372.868,192.465,368.725,192.465z"/>
		<path style="fill:#D0CFD1;" d="M368.725,241.291H152.866c-4.143,0-7.5,3.358-7.5,7.5s3.357,7.5,7.5,7.5h215.859    c4.143,0,7.5-3.358,7.5-7.5S372.868,241.291,368.725,241.291z"/>
		<path style="fill:#D0CFD1;" d="M368.725,290.117H152.866c-4.143,0-7.5,3.358-7.5,7.5s3.357,7.5,7.5,7.5h215.859    c4.143,0,7.5-3.358,7.5-7.5S372.868,290.117,368.725,290.117z"/>
		<path style="fill:#D0CFD1;" d="M333.001,338.943H152.866c-4.143,0-7.5,3.358-7.5,7.5s3.357,7.5,7.5,7.5h180.136    c4.143,0,7.5-3.358,7.5-7.5S337.144,338.943,333.001,338.943z"/>
		<path style="fill:#D0CFD1;" d="M252.626,387.769h-99.761c-4.143,0-7.5,3.358-7.5,7.5s3.357,7.5,7.5,7.5h99.761    c4.143,0,7.5-3.358,7.5-7.5S256.769,387.769,252.626,387.769z"/>
	</g>
</g>















</svg>
