<svg height="512pt" viewBox="-21 0 512 512" width="512pt" xmlns="http://www.w3.org/2000/svg"><path d="m463.957031 129.40625-224-128c-3.285156-1.875-7.296875-1.875-10.582031 0l-224 128c-3.328125 1.902344-5.375 5.441406-5.375 9.261719v234.664062c0 3.820313 2.046875 7.359375 5.375 9.261719l224 128c1.644531.9375 3.457031 1.40625 5.292969 1.40625 1.832031 0 3.648437-.46875 5.289062-1.40625l224-128c3.328125-1.902344 5.375-5.441406 5.375-9.261719v-234.664062c0-3.820313-2.046875-7.359375-5.375-9.261719zm0 0" fill="#4caf50"/><path d="m234.667969 512c-1.816407 0-3.648438-.46875-5.292969-1.40625l-224-128c-3.328125-1.902344-5.375-5.441406-5.375-9.261719v-234.664062c0-3.820313 2.046875-7.359375 5.375-9.261719l224-128c3.265625-1.875 7.316406-1.875 10.582031 0l224 128c3.328125 1.902344 5.375 5.441406 5.375 9.261719v234.664062c0 3.820313-2.046875 7.359375-5.375 9.261719l-224 128c-1.640625.9375-3.476562 1.40625-5.289062 1.40625zm-213.335938-144.851562 213.335938 121.898437 213.332031-121.898437v-222.296876l-213.332031-121.898437-213.335938 121.898437zm0 0"/></svg>