<?xml version="1.0"?>
<svg xmlns="http://www.w3.org/2000/svg" height="512px" viewBox="-64 0 512 512" width="512px"><g><g fill-rule="evenodd"><path d="m374.441406 10h-260.425781l-104.015625 104.019531v387.980469h364.441406zm0 0" fill="#b5f2ff" data-original="#B5F2FF"/><path d="m114.015625 10v104.019531h-104.015625zm0 0" fill="#00d8ff" data-original="#00D8FF"/><path d="m192.222656 259.289062c38.976563 0 70.578125 14.515626 70.578125 60.109376 0 45.597656-31.601562 94.648437-70.578125 94.648437-38.980468 0-70.582031-49.050781-70.582031-94.648437 0-45.59375 31.601563-60.109376 70.582031-60.109376zm0 0" fill="#ff5d5d" data-original="#FF5D5D"/><path d="m192.222656 259.289062c19.699219 0 35.671875-7.335937 35.671875-30.382812s-15.972656-39.980469-35.671875-39.980469c-19.703125 0-35.675781 16.933594-35.675781 39.980469s15.972656 30.382812 35.675781 30.382812zm0 0" fill="#ff8f8d" data-original="#FF8F8D"/><path d="m374.441406 0h-260.425781c-.109375 0-.222656.0117188-.335937.015625-.113282.0039062-.226563.0117188-.339844.0195312-.421875.0273438-.84375.0742188-1.253906.1562498-.011719 0-.015626 0-.023438.003906-.421875.082032-.835938.203126-1.242188.339844-.105468.035156-.210937.074219-.3125.113282-.382812.140624-.753906.300781-1.113281.488281-.027343.015625-.054687.023437-.078125.039062-.378906.203125-.742187.433594-1.09375.6875-.089844.066407-.183594.132813-.269531.199219-.351563.269531-.691406.550781-1.007813.867188l-104.015624 104.015624c-.316407.316407-.601563.660157-.867188 1.007813-.070312.089844-.136719.179687-.199219.269531-.25.355469-.488281.71875-.691406 1.097656-.011719.023438-.019531.042969-.027344.066407-.191406.363281-.355469.742187-.496093 1.128906-.039063.101563-.078126.203125-.113282.304687-.136718.410157-.257812.824219-.34375 1.246094v.007813c-.082031.417969-.128906.847656-.1562498 1.277343-.0078124.109376-.015625.21875-.0195312.328126-.0039062.113281-.015625.226562-.015625.339843v387.980469c0 5.523438 4.476562 10 10 10h364.445312c5.519532 0 10-4.476562 10-10v-492c-.003906-5.523438-4.480468-10-10.003906-10zm-270.425781 34.140625v69.878906h-69.875zm260.425781 457.859375h-344.441406v-367.980469h94.019531c5.519531 0 10-4.480469 10-10v-94.019531h240.425781v472zm0 0" data-original="#000000"/><path d="m165.230469 188.34375c-11.394531 9.003906-18.683594 23.675781-18.683594 40.5625 0 10.609375 2.851563 19.339844 8.238281 25.941406-6.1875 2.132813-11.753906 4.863282-16.65625 8.183594l-20.734375-21.203125v-28.945313c0-5.523437-4.476562-10-10-10-5.523437 0-10 4.476563-10 10v33.023438c0 2.613281 1.023438 5.121094 2.851563 6.992188l23.503906 24.03125c-6.886719 9.558593-10.894531 21.492187-11.859375 35.636718l-28.328125 11.488282c-3.058594 1.242187-5.308594 3.914062-6.011719 7.144531l-9.710937 44.679687c-1.175782 5.394532 2.25 10.722656 7.644531 11.894532.71875.152343 1.429687.230468 2.136719.230468 4.601562 0 8.742187-3.199218 9.761718-7.878906l8.589844-39.523438 16.613282-6.738281c1.984374 15.550781 7.054687 30.929688 14.503906 44.464844l-20.28125 17.113281c-1.574219 1.328125-2.699219 3.105469-3.222656 5.09375l-9.097657 34.488282c-1.40625 5.339843 1.78125 10.808593 7.121094 12.21875.855469.226562 1.710937.332031 2.554687.332031 4.433594 0 8.480469-2.96875 9.664063-7.453125l8.289063-31.429688 16.179687-13.652344c3.226563 3.972657 6.691406 7.648438 10.375 10.945313 4.113281 3.683594 10.4375 3.335937 14.121094-.78125 3.683593-4.113281 3.335937-10.433594-.78125-14.117187-18.164063-16.265626-30.367188-45.070313-30.367188-71.6875 0-18.152344 5.417969-30.933594 16.570313-39.078126 10.019531-7.320312 24.828125-11.03125 44.007812-11.03125 19.179688 0 33.988282 3.710938 44.011719 11.03125 11.148437 8.144532 16.570313 20.925782 16.570313 39.078126 0 26.613281-12.207032 55.421874-30.371094 71.6875-4.117188 3.683593-4.464844 10.003906-.78125 14.117187 1.976562 2.207031 4.707031 3.332031 7.453125 3.332031 2.375 0 4.757812-.839844 6.667969-2.550781 3.683593-3.296875 7.148437-6.972656 10.375-10.945313l16.179687 13.652344 8.289063 31.429688c1.183593 4.488281 5.234374 7.453125 9.664062 7.453125.84375 0 1.703125-.105469 2.558594-.332031 5.339844-1.410157 8.523437-6.878907 7.117187-12.222657l-9.097656-34.484375c-.523437-1.988281-1.648437-3.765625-3.222656-5.09375l-20.28125-17.109375c7.453125-13.535156 12.519531-28.917969 14.503906-44.46875l16.613281 6.738281 8.589844 39.523438c1.019531 4.679688 5.160156 7.878906 9.761719 7.878906.703125 0 1.417969-.078125 2.136719-.230468 5.394531-1.175782 8.820312-6.5 7.644531-11.894532l-9.710938-44.679687c-.703125-3.230469-2.953125-5.902344-6.015625-7.144531l-28.324218-11.488282c-.964844-14.144531-4.976563-26.082031-11.859376-35.636718l23.503907-24.03125c1.824219-1.871094 2.851562-4.378907 2.851562-6.992188v-33.023438c0-5.523437-4.480469-10-10-10-5.523437 0-10 4.476563-10 10v28.945313l-20.738281 21.203125c-4.902344-3.320312-10.464844-6.050781-16.652344-8.183594 5.386719-6.601562 8.238282-15.332031 8.238282-25.941406 0-16.886719-7.289063-31.5625-18.683594-40.5625l7.773437-17.34375c2.257813-5.039062.003907-10.957031-5.035156-13.21875-5.039063-2.257812-10.953125-.003906-13.214844 5.035156l-7.628906 17.023438c-2.871094-.597656-5.835937-.914063-8.886719-.914063-3.050781 0-6.019531.316407-8.882812.914063l-7.632813-17.023438c-2.261719-5.039062-8.175781-7.292968-13.21875-5.035156-5.039062 2.261719-7.292969 8.179688-5.03125 13.21875zm36.714843 12.65625c.171876.089844.335938.183594.515626.265625.082031.035156.164062.058594.246093.09375 9.109375 4.507813 15.1875 14.867187 15.1875 27.550781 0 10.078125-3.050781 20.378906-25.671875 20.378906-22.625 0-25.675781-10.300781-25.675781-20.378906 0-12.683594 6.078125-23.046875 15.191406-27.550781.078125-.035156.160157-.058594.242188-.09375.175781-.082031.339843-.171875.507812-.261719 2.976563-1.34375 6.25-2.078125 9.730469-2.078125s6.753906.734375 9.726562 2.074219zm0 0" data-original="#000000"/><path d="m192.222656 404.046875c-5.507812 0-10 4.492187-10 10s4.492188 10 10 10c5.507813 0 10-4.492187 10-10s-4.492187-10-10-10zm0 0" data-original="#000000"/></g></g> </svg>
