<?xml version="1.0" encoding="iso-8859-1"?>
<!-- Generator: Adobe Illustrator 19.0.0, SVG Export Plug-In . SVG Version: 6.00 Build 0)  -->
<svg version="1.1" id="Capa_1" xmlns="http://www.w3.org/2000/svg" xmlns:xlink="http://www.w3.org/1999/xlink" x="0px" y="0px"
	 viewBox="0 0 512.057 512.057" style="enable-background:new 0 0 512.057 512.057;" xml:space="preserve">
<path style="fill:#2196F3;" d="M400.029,144.043v64l96-96l-96-96v64c-57.39,0.09-111.131,28.155-144,75.2
	c-32.869-47.045-86.61-75.11-144-75.2v-64l-96,96l96,96v-64c61.856,0,112,50.144,112,112v240h64v-240
	C288.029,194.187,338.173,144.043,400.029,144.043z"/>
<path d="M288.029,512.043h-64c-8.837,0-16-7.163-16-16v-240c-0.001-46.845-33.811-86.849-80-94.656v46.656
	c0.016,8.837-7.135,16.013-15.971,16.029c-4.26,0.008-8.348-1.684-11.357-4.701l-96-96c-6.256-6.24-6.269-16.371-0.029-22.627
	c0.01-0.01,0.019-0.019,0.029-0.029l96-96c6.24-6.256,16.371-6.269,22.627-0.029c3.016,3.009,4.708,7.096,4.701,11.357v48.672
	c49.412,4.287,95.264,27.477,128,64.736c32.737-37.259,78.588-60.449,128-64.736V16.043c0.001-6.475,3.904-12.311,9.888-14.784
	c5.977-2.481,12.861-1.117,17.44,3.456l96,96c6.256,6.24,6.269,16.371,0.029,22.627c-0.01,0.01-0.019,0.019-0.029,0.029l-96,96
	c-6.24,6.256-16.371,6.269-22.627,0.029c-3.016-3.009-4.708-7.096-4.701-11.357v-46.656c-46.189,7.807-79.999,47.811-80,94.656v240
	C304.029,504.879,296.865,512.043,288.029,512.043z M240.029,480.043h32v-224c0-70.692,57.308-128,128-128c8.837,0,16,7.163,16,16
	v25.376l57.376-57.376l-57.376-57.376v25.376c0,8.837-7.163,16-16,16c-52.16,0.185-100.98,25.698-130.912,68.416
	c-5.675,7.228-16.136,8.487-23.364,2.812c-1.046-0.822-1.991-1.766-2.812-2.812c-29.932-42.718-78.752-68.231-130.912-68.416
	c-8.837,0-16-7.163-16-16V54.667l-57.376,57.376l57.376,57.376v-25.376c0-8.837,7.163-16,16-16c70.692,0,128,57.308,128,128V480.043
	z"/>
<g>
</g>
<g>
</g>
<g>
</g>
<g>
</g>
<g>
</g>
<g>
</g>
<g>
</g>
<g>
</g>
<g>
</g>
<g>
</g>
<g>
</g>
<g>
</g>
<g>
</g>
<g>
</g>
<g>
</g>
</svg>
