<?xml version="1.0"?>
<svg xmlns="http://www.w3.org/2000/svg" id="Flat" viewBox="0 0 64 64" width="512" height="512"><rect x="27" y="21" width="10" height="24" rx="5" ry="5" style="fill:#b3b3b3"/><rect x="30" y="49" width="4" height="8" style="fill:gray"/><path d="M36,57H28a2,2,0,0,0-2,2v2H38V59A2,2,0,0,0,36,57Z" style="fill:#e6e6e6"/><path d="M27,31H37v9a5,5,0,0,1-5,5h0a5,5,0,0,1-5-5Z" style="fill:#e6e6e6"/><rect x="21" y="33" width="6" height="4" style="fill:#b3b3b3"/><rect x="37" y="33" width="6" height="4" style="fill:#b3b3b3"/><path d="M30,27a.99.99,0,0,1-.92-1.38,1.032,1.032,0,0,1,.21-.33,1.047,1.047,0,0,1,1.42,0,1.155,1.155,0,0,1,.21.33A.99.99,0,0,1,30,27Z" style="fill:#e6e6e6"/><path d="M32,29a.99.99,0,0,1-.92-1.38,1.155,1.155,0,0,1,.21-.33,1.017,1.017,0,0,1,1.09-.21,1.169,1.169,0,0,1,.33.21,1.155,1.155,0,0,1,.21.33.99.99,0,0,1-.21,1.09,1.169,1.169,0,0,1-.33.21A1,1,0,0,1,32,29Z" style="fill:#e6e6e6"/><path d="M34,27a.99.99,0,0,1-1-1,.838.838,0,0,1,.08-.38,1.032,1.032,0,0,1,.21-.33,1.009,1.009,0,0,1,.91-.27.646.646,0,0,1,.18.06.776.776,0,0,1,.18.09,1.712,1.712,0,0,1,.15.12A1.05,1.05,0,0,1,35,26a.99.99,0,0,1-1,1Z" style="fill:#e6e6e6"/><path d="M32,25a.991.991,0,0,1-.71-.29,1.169,1.169,0,0,1-.21-.33A.838.838,0,0,1,31,24a.99.99,0,0,1,1.38-.92,1.169,1.169,0,0,1,.33.21A1.05,1.05,0,0,1,33,24a1,1,0,0,1-.08.38,1.169,1.169,0,0,1-.21.33,1.484,1.484,0,0,1-.33.22A1,1,0,0,1,32,25Z" style="fill:#e6e6e6"/><circle cx="32" cy="36" r="2" style="fill:#b3b3b3"/><path d="M62,32H60A28,28,0,0,0,4,32H2a30,30,0,0,1,60,0Z" style="fill:#6cbbc7"/><path d="M56,32H54a22,22,0,0,0-44,0H8a24,24,0,0,1,48,0Z" style="fill:#6cbbc7"/><path d="M50,32H48a16,16,0,0,0-32,0H14a18,18,0,0,1,36,0Z" style="fill:#6cbbc7"/><path d="M32,50A10.011,10.011,0,0,1,22,40V37h2v3a8,8,0,0,0,16,0V37h2v3A10.011,10.011,0,0,1,32,50Z" style="fill:#e6e6e6"/></svg>
