<?xml version="1.0"?>
<svg xmlns="http://www.w3.org/2000/svg" height="512px" viewBox="-33 0 512 512" width="512px" class=""><g><path d="m57.199219 16.566406h-25.632813v-9.066406c0-4.140625-3.355468-7.5-7.5-7.5-4.140625 0-7.5 3.359375-7.5 7.5v9.066406h-9.066406c-4.140625 0-7.5 3.359375-7.5 7.5 0 4.144532 3.359375 7.5 7.5 7.5h9.066406v25.632813c0 4.144531 3.359375 7.5 7.5 7.5 4.144532 0 7.5-3.355469 7.5-7.5v-25.632813h25.632813c4.144531 0 7.5-3.359375 7.5-7.5s-3.355469-7.5-7.5-7.5zm0 0" fill="#393e4d" data-original="#393E4D" class="" style="fill:#FF1100" data-old_color="#393E4D"/><path d="m388.53125 31.566406h25.632812v25.632813c0 4.144531 3.359376 7.5 7.5 7.5 4.144532 0 7.5-3.355469 7.5-7.5v-25.632813h9.066407c4.144531 0 7.5-3.355468 7.5-7.5 0-4.140625-3.355469-7.5-7.5-7.5h-9.066407v-9.066406c0-4.140625-3.355468-7.5-7.5-7.5-4.140624 0-7.5 3.359375-7.5 7.5v9.066406h-25.632812c-4.140625 0-7.5 3.359375-7.5 7.5 0 4.144532 3.359375 7.5 7.5 7.5zm0 0" fill="#393e4d" data-original="#393E4D" class="" style="fill:#FF1100" data-old_color="#393E4D"/><path d="m438.230469 480.433594h-9.066407v-25.632813c0-4.144531-3.355468-7.5-7.5-7.5-4.140624 0-7.5 3.355469-7.5 7.5v25.632813h-25.632812c-4.140625 0-7.5 3.355468-7.5 7.5 0 4.140625 3.359375 7.5 7.5 7.5h25.632812v9.066406c0 4.140625 3.359376 7.5 7.5 7.5 4.144532 0 7.5-3.359375 7.5-7.5v-9.066406h9.066407c4.144531 0 7.5-3.359375 7.5-7.5 0-4.144532-3.355469-7.5-7.5-7.5zm0 0" fill="#393e4d" data-original="#393E4D" class="" style="fill:#FF1100" data-old_color="#393E4D"/><path d="m57.199219 480.433594h-25.632813v-25.632813c0-4.144531-3.359375-7.5-7.5-7.5s-7.5 3.355469-7.5 7.5v25.632813h-9.066406c-4.140625 0-7.5 3.355468-7.5 7.5 0 4.140625 3.359375 7.5 7.5 7.5h9.066406v9.066406c0 4.140625 3.359375 7.5 7.5 7.5s7.5-3.359375 7.5-7.5v-9.066406h25.632813c4.144531 0 7.5-3.359375 7.5-7.5 0-4.144532-3.355469-7.5-7.5-7.5zm0 0" fill="#393e4d" data-original="#393E4D" class="" style="fill:#FF1100" data-old_color="#393E4D"/><path d="m338.832031 90.332031h-242.5c-3.3125 0-6 2.6875-6 6v87.398438c0 3.316406 2.6875 6 6 6h21.132813c3.316406 0 6-2.683594 6-6v-21.128907c0-3.316406 2.6875-6 6-6h54.265625c3.316406 0 6 2.683594 6 6v219.929688c0 3.3125-2.683594 6-6 6h-21.128907c-3.316406 0-6 2.683594-6 6v21.132812c0 3.3125 2.683594 6 6 6h120.53125c3.3125 0 6-2.6875 6-6v-21.132812c0-3.316406-2.6875-6-6-6h-21.136718c-3.3125 0-6-2.6875-6-6v-219.929688c0-3.316406 2.6875-6 6-6h54.269531c3.3125 0 6 2.683594 6 6v21.128907c0 3.316406 2.683594 6 6 6h21.132813c3.3125 0 6-2.683594 6-6v-87.398438c0-3.3125-2.6875-6-6-6zm0 0" fill="#393e4d" data-original="#393E4D" class="" style="fill:#FF1100" data-old_color="#393E4D"/><g fill="#c3ddf4"><path d="m123.464844 16.566406h-24.847656c-4.140626 0-7.5 3.355469-7.5 7.5 0 4.140625 3.359374 7.5 7.5 7.5h24.847656c4.144531 0 7.5-3.359375 7.5-7.5 0-4.144531-3.355469-7.5-7.5-7.5zm0 0" data-original="#000000" class="" style="fill:#D1D1C6" data-old_color="#9F9F97"/><path d="m198.015625 16.566406h-24.851563c-4.140624 0-7.5 3.355469-7.5 7.5 0 4.140625 3.359376 7.5 7.5 7.5h24.851563c4.140625 0 7.5-3.359375 7.5-7.5 0-4.144531-3.359375-7.5-7.5-7.5zm0 0" data-original="#000000" class="" style="fill:#D1D1C6" data-old_color="#9F9F97"/><path d="m347.113281 16.566406h-24.847656c-4.144531 0-7.5 3.355469-7.5 7.5 0 4.140625 3.355469 7.5 7.5 7.5h24.847656c4.144531 0 7.5-3.359375 7.5-7.5 0-4.144531-3.355469-7.5-7.5-7.5zm0 0" data-original="#000000" class="" style="fill:#D1D1C6" data-old_color="#9F9F97"/><path d="m272.566406 16.566406h-24.851562c-4.140625 0-7.5 3.355469-7.5 7.5 0 4.140625 3.359375 7.5 7.5 7.5h24.851562c4.140625 0 7.5-3.359375 7.5-7.5 0-4.144531-3.359375-7.5-7.5-7.5zm0 0" data-original="#000000" class="" style="fill:#D1D1C6" data-old_color="#9F9F97"/><path d="m123.464844 480.429688h-24.847656c-4.140626 0-7.5 3.355468-7.5 7.5 0 4.140624 3.359374 7.5 7.5 7.5h24.847656c4.144531 0 7.5-3.359376 7.5-7.5 0-4.144532-3.355469-7.5-7.5-7.5zm0 0" data-original="#000000" class="" style="fill:#D1D1C6" data-old_color="#9F9F97"/><path d="m198.015625 480.429688h-24.851563c-4.140624 0-7.5 3.355468-7.5 7.5 0 4.140624 3.359376 7.5 7.5 7.5h24.851563c4.140625 0 7.5-3.359376 7.5-7.5 0-4.144532-3.359375-7.5-7.5-7.5zm0 0" data-original="#000000" class="" style="fill:#D1D1C6" data-old_color="#9F9F97"/><path d="m347.113281 480.429688h-24.847656c-4.144531 0-7.5 3.355468-7.5 7.5 0 4.140624 3.355469 7.5 7.5 7.5h24.847656c4.144531 0 7.5-3.359376 7.5-7.5 0-4.144532-3.355469-7.5-7.5-7.5zm0 0" data-original="#000000" class="" style="fill:#D1D1C6" data-old_color="#9F9F97"/><path d="m272.566406 480.429688h-24.851562c-4.140625 0-7.5 3.355468-7.5 7.5 0 4.140624 3.359375 7.5 7.5 7.5h24.851562c4.140625 0 7.5-3.359376 7.5-7.5 0-4.144532-3.359375-7.5-7.5-7.5zm0 0" data-original="#000000" class="" style="fill:#D1D1C6" data-old_color="#9F9F97"/><path d="m421.664062 86.972656c-4.140624 0-7.5 3.355469-7.5 7.5v24.847656c0 4.144532 3.359376 7.5 7.5 7.5 4.144532 0 7.5-3.355468 7.5-7.5v-24.847656c0-4.144531-3.355468-7.5-7.5-7.5zm0 0" data-original="#000000" class="" style="fill:#D1D1C6" data-old_color="#9F9F97"/><path d="m421.664062 161.519531c-4.140624 0-7.5 3.359375-7.5 7.5v24.847657c0 4.144531 3.359376 7.5 7.5 7.5 4.144532 0 7.5-3.355469 7.5-7.5v-24.847657c0-4.140625-3.355468-7.5-7.5-7.5zm0 0" data-original="#000000" class="" style="fill:#D1D1C6" data-old_color="#9F9F97"/><path d="m421.664062 310.621094c-4.140624 0-7.5 3.355468-7.5 7.5v24.847656c0 4.140625 3.359376 7.5 7.5 7.5 4.144532 0 7.5-3.359375 7.5-7.5v-24.847656c0-4.144532-3.355468-7.5-7.5-7.5zm0 0" data-original="#000000" class="" style="fill:#D1D1C6" data-old_color="#9F9F97"/><path d="m421.664062 385.179688c-4.140624 0-7.5 3.355468-7.5 7.5v24.847656c0 4.140625 3.359376 7.5 7.5 7.5 4.144532 0 7.5-3.359375 7.5-7.5v-24.847656c0-4.144532-3.355468-7.5-7.5-7.5zm0 0" data-original="#000000" class="" style="fill:#D1D1C6" data-old_color="#9F9F97"/><path d="m421.664062 236.070312c-4.140624 0-7.5 3.359376-7.5 7.5v24.851563c0 4.140625 3.359376 7.5 7.5 7.5 4.144532 0 7.5-3.359375 7.5-7.5v-24.851563c0-4.140624-3.355468-7.5-7.5-7.5zm0 0" data-original="#000000" class="" style="fill:#D1D1C6" data-old_color="#9F9F97"/><path d="m24.066406 86.972656c-4.144531 0-7.5 3.355469-7.5 7.5v24.847656c0 4.144532 3.355469 7.5 7.5 7.5 4.140625 0 7.5-3.355468 7.5-7.5v-24.847656c0-4.144531-3.359375-7.5-7.5-7.5zm0 0" data-original="#000000" class="" style="fill:#D1D1C6" data-old_color="#9F9F97"/><path d="m24.066406 161.519531c-4.144531 0-7.5 3.359375-7.5 7.5v24.847657c0 4.144531 3.355469 7.5 7.5 7.5 4.140625 0 7.5-3.355469 7.5-7.5v-24.847657c0-4.140625-3.359375-7.5-7.5-7.5zm0 0" data-original="#000000" class="" style="fill:#D1D1C6" data-old_color="#9F9F97"/><path d="m24.066406 310.621094c-4.144531 0-7.5 3.355468-7.5 7.5v24.847656c0 4.140625 3.355469 7.5 7.5 7.5 4.140625 0 7.5-3.359375 7.5-7.5v-24.847656c0-4.144532-3.359375-7.5-7.5-7.5zm0 0" data-original="#000000" class="" style="fill:#D1D1C6" data-old_color="#9F9F97"/><path d="m24.066406 385.179688c-4.144531 0-7.5 3.355468-7.5 7.5v24.847656c0 4.140625 3.355469 7.5 7.5 7.5 4.140625 0 7.5-3.359375 7.5-7.5v-24.847656c0-4.144532-3.359375-7.5-7.5-7.5zm0 0" data-original="#000000" class="" style="fill:#D1D1C6" data-old_color="#9F9F97"/><path d="m24.066406 236.070312c-4.144531 0-7.5 3.359376-7.5 7.5v24.851563c0 4.140625 3.355469 7.5 7.5 7.5 4.140625 0 7.5-3.359375 7.5-7.5v-24.851563c0-4.140624-3.359375-7.5-7.5-7.5zm0 0" data-original="#000000" class="" style="fill:#D1D1C6" data-old_color="#9F9F97"/></g><path d="m262 156.601562h-24c-3.316406 0-6 2.683594-6 6v219.929688c0 3.3125 2.683594 6 6 6h24c-3.316406 0-6-2.6875-6-6v-219.929688c0-3.316406 2.683594-6 6-6zm0 0" fill="#313542" data-original="#313542" class="active-path" style="fill:#FF1900" data-old_color="#24150A"/><path d="m283.132812 388.53125h-24c3.3125 0 6 2.683594 6 6v21.132812c0 3.3125-2.6875 6-6 6h24c3.3125 0 6-2.6875 6-6v-21.132812c0-3.316406-2.6875-6-6-6zm0 0" fill="#313542" data-original="#313542" class="active-path" style="fill:#FF1900" data-old_color="#24150A"/><path d="m99.46875 162.601562v21.128907c0 2.820312-1.949219 5.179687-4.570312 5.820312.460937.113281.941406.179688 1.433593.179688h21.132813c3.316406 0 6-2.683594 6-6v-21.128907c0-3.316406 2.6875-6 6-6h-24c-3.3125 0-5.996094 2.683594-5.996094 6zm0 0" fill="#313542" data-original="#313542" class="active-path" style="fill:#FF1900" data-old_color="#24150A"/><path d="m349.398438 90.332031h-24c3.316406 0 6 2.6875 6 6v87.398438c0 2.820312-1.945313 5.179687-4.566407 5.820312.460938.113281.9375.179688 1.433594.179688h21.132813c3.3125 0 6-2.683594 6-6v-87.398438c0-3.3125-2.6875-6-6-6zm0 0" fill="#313542" data-original="#313542" class="active-path" style="fill:#FF1900" data-old_color="#24150A"/></g> </svg>
