<?xml version="1.0" encoding="iso-8859-1"?>
<!-- Generator: Adobe Illustrator 19.0.0, SVG Export Plug-In . SVG Version: 6.00 Build 0)  -->
<svg version="1.1" id="Layer_1" xmlns="http://www.w3.org/2000/svg" xmlns:xlink="http://www.w3.org/1999/xlink" x="0px" y="0px"
	 viewBox="0 0 512 512" style="enable-background:new 0 0 512 512;" xml:space="preserve">
<g>
	<path style="fill:#F05228;" d="M256.002,512c-21.965,0-39.77-17.807-39.77-39.775V207.091c0-21.967,17.807-39.775,39.77-39.775
		c21.965,0,39.767,17.807,39.767,39.775v265.134C295.769,494.193,277.967,512,256.002,512z"/>
	<path style="fill:#F05228;" d="M428.341,39.77c0,21.962-17.802,39.764-39.77,39.764H123.427c-21.962,0-39.775-17.802-39.775-39.764
		S101.465,0,123.427,0h265.144C410.539,0,428.341,17.807,428.341,39.77z"/>
	<path style="fill:#F05228;" d="M388.571,331.42c-10.184,0-20.352-3.884-28.122-11.653l-104.448-104.44l-104.451,104.44
		c-15.526,15.537-40.712,15.537-56.243,0c-15.532-15.526-15.532-40.704,0-56.243L227.88,130.957
		c15.534-15.532,40.712-15.532,56.241,0l132.572,132.567c15.539,15.537,15.539,40.714,0,56.243
		C408.923,327.537,398.753,331.42,388.571,331.42z"/>
</g>
<g>
</g>
<g>
</g>
<g>
</g>
<g>
</g>
<g>
</g>
<g>
</g>
<g>
</g>
<g>
</g>
<g>
</g>
<g>
</g>
<g>
</g>
<g>
</g>
<g>
</g>
<g>
</g>
<g>
</g>
</svg>
