<svg height="512pt" viewBox="-44 0 512 512" width="512pt" xmlns="http://www.w3.org/2000/svg"><path d="m67.667969 143.363281v361.132813h93.9375v-361.132813h52.550781l-99.519531-130.96875-99.519531 130.96875zm0 0" fill="#e2fc85"/><path d="m261.941406 368.636719v-361.132813h93.9375v361.132813h52.550782l-99.519532 130.96875-99.519531-130.96875zm0 0" fill="#e2fc85"/><g fill="#6ad34d"><path d="m261.941406 7.503906h30v361.132813h-30zm0 0"/><path d="m114.636719 12.394531-99.519531 130.96875h30l84.519531-111.226562zm0 0"/><path d="m67.667969 143.363281h30v361.136719h-30zm0 0"/><path d="m239.390625 368.636719h-30l99.519531 130.96875 15-19.738281zm0 0"/></g><path d="m169.105469 511.996094h-108.9375v-233.550782h15v218.550782h78.9375v-361.132813h44.933593l-84.402343-111.070312-84.398438 111.070312h44.929688v122.582031h-15v-107.582031h-60.167969l114.636719-150.863281 114.636719 150.863281h-60.167969zm0 0"/><path d="m308.910156 512-114.636718-150.863281h60.171874v-361.13281275h108.933594v208.50781275h-15v-193.507813h-78.933594v361.132813h-44.933593l84.398437 111.070312 84.402344-111.070312h-44.933594v-147.625h15v132.625h60.171875zm0 0"/><path d="m134.636719 150.863281h-15v-15h15zm-25 0h-15v-15h15zm0 0" fill="#fff"/></svg>