<?xml version="1.0" encoding="utf-8"?>
<!-- Generator: Adobe Illustrator 23.0.1, SVG Export Plug-In . SVG Version: 6.00 Build 0)  -->
<svg version="1.1" id="Layer_1" xmlns="http://www.w3.org/2000/svg" xmlns:xlink="http://www.w3.org/1999/xlink" x="0px" y="0px"
	 viewBox="0 0 164.4 164.4" style="enable-background:new 0 0 164.4 164.4;" xml:space="preserve">
<style type="text/css">
	.st0{fill:none;stroke:#000000;stroke-miterlimit:10;}
	.st1{stroke:#000000;stroke-miterlimit:10;}
</style>
<g>
	<polygon class="st0" points="100.9,64.4 85.9,49.4 62.9,49.4 62.9,99.4 100.9,99.4 	"/>
	<path class="st1" d="M100.9,64.4H86.2V49.7c0-0.1,0.1-0.2,0.2-0.1L101,64.2C101.1,64.3,101,64.4,100.9,64.4z"/>
</g>
<g>
	<path class="st1" d="M73.7,82.9L70,79.1l3.7-3.7c0,0,0.1,0,0.1,0L73.7,82.9C73.7,82.9,73.7,82.9,73.7,82.9z"/>
	<path class="st1" d="M90.2,75.5l3.7,3.8l-3.7,3.7c0,0-0.1,0-0.1,0L90.2,75.5C90.1,75.4,90.2,75.4,90.2,75.5z"/>
	<polygon class="st1" points="90.4,79.2 74,79.2 74,79.2 	"/>
</g>
</svg>
