<?xml version="1.0" encoding="utf-8"?>
<!-- Generator: Adobe Illustrator 23.0.1, SVG Export Plug-In . SVG Version: 6.00 Build 0)  -->
<svg version="1.1" id="Layer_1" xmlns="http://www.w3.org/2000/svg" xmlns:xlink="http://www.w3.org/1999/xlink" x="0px" y="0px"
	 viewBox="0 0 164.41 164.41" style="enable-background:new 0 0 164.41 164.41;" xml:space="preserve">
<style type="text/css">
	.st0{fill:none;stroke:#000000;stroke-miterlimit:10;}
	.st1{stroke:#000000;stroke-miterlimit:10;}
</style>
<g>
	<polygon class="st0" points="100.94,72.44 85.94,57.44 62.94,57.44 62.94,107.44 100.94,107.44 	"/>
	<path class="st1" d="M100.92,72.44H86.2V57.73c0-0.11,0.13-0.16,0.2-0.08l14.59,14.59C101.08,72.31,101.02,72.44,100.92,72.44z"/>
</g>
<g>
	<path class="st1" d="M78.19,81.91l3.75-3.71l3.68,3.71c0.03,0.03,0.01,0.07-0.03,0.07l-7.37-0.01
		C78.18,81.98,78.16,81.94,78.19,81.91z"/>
	<path class="st1" d="M85.69,98.42l-3.74,3.72l-3.69-3.7c-0.03-0.03-0.01-0.07,0.03-0.07l7.37-0.01
		C85.7,98.34,85.71,98.39,85.69,98.42z"/>
	<polygon class="st1" points="81.97,98.68 81.9,82.23 81.9,82.23 	"/>
</g>
<g>
	<path class="st1" d="M90.22,86.67l3.72,3.74l-3.7,3.69c-0.03,0.03-0.07,0.01-0.07-0.03l-0.03-7.37
		C90.15,86.66,90.19,86.64,90.22,86.67z"/>
	<path class="st1" d="M73.74,94.25L70,90.52l3.69-3.7c0.03-0.03,0.07-0.01,0.07,0.03l0.05,7.37C73.82,94.26,73.77,94.27,73.74,94.25
		z"/>
	<polygon class="st1" points="73.46,90.53 89.91,90.38 89.91,90.38 	"/>
</g>
</svg>
